<?xml version="1.0" encoding="UTF-8" standalone="no"?>
<!DOCTYPE svg PUBLIC "-//W3C//DTD SVG 1.1//EN"
 "http://www.w3.org/Graphics/SVG/1.1/DTD/svg11.dtd">
<!-- Generated by graphviz version 2.49.3 (20211023.0002)
 -->
<!-- Pages: 1 -->
<svg width="860pt" height="260pt"
 viewBox="0.00 0.00 860.26 260.00" xmlns="http://www.w3.org/2000/svg" xmlns:xlink="http://www.w3.org/1999/xlink">
<g id="graph0" class="graph" transform="scale(1 1) rotate(0) translate(4 256)">
<polygon fill="white" stroke="transparent" points="-4,4 -4,-256 856.26,-256 856.26,4 -4,4"/>
<!-- [root] local_file.literature (expand) -->
<g id="node1" class="node">
<title>[root] local_file.literature (expand)</title>
<polygon fill="none" stroke="black" points="459.18,-108 336.18,-108 336.18,-72 459.18,-72 459.18,-108"/>
<text text-anchor="middle" x="397.68" y="-86.3" font-family="Times,serif" font-size="14.00">local_file.literature</text>
</g>
<!-- [root] provider[&quot;registry.terraform.io/hashicorp/local&quot;] -->
<g id="node2" class="node">
<title>[root] provider[&quot;registry.terraform.io/hashicorp/local&quot;]</title>
<polygon fill="none" stroke="black" points="397.68,-36 134.09,-18 397.68,0 661.28,-18 397.68,-36"/>
<text text-anchor="middle" x="397.68" y="-14.3" font-family="Times,serif" font-size="14.00">provider[&quot;registry.terraform.io/hashicorp/local&quot;]</text>
</g>
<!-- [root] local_file.literature (expand)&#45;&gt;[root] provider[&quot;registry.terraform.io/hashicorp/local&quot;] -->
<g id="edge1" class="edge">
<title>[root] local_file.literature (expand)&#45;&gt;[root] provider[&quot;registry.terraform.io/hashicorp/local&quot;]</title>
<path fill="none" stroke="black" d="M397.68,-71.7C397.68,-63.98 397.68,-54.71 397.68,-46.11"/>
<polygon fill="black" stroke="black" points="401.18,-46.1 397.68,-36.1 394.18,-46.1 401.18,-46.1"/>
</g>
<!-- [root] meta.count&#45;boundary (EachMode fixup) -->
<g id="node3" class="node">
<title>[root] meta.count&#45;boundary (EachMode fixup)</title>
<ellipse fill="none" stroke="black" cx="180.68" cy="-162" rx="180.87" ry="18"/>
<text text-anchor="middle" x="180.68" y="-158.3" font-family="Times,serif" font-size="14.00">[root] meta.count&#45;boundary (EachMode fixup)</text>
</g>
<!-- [root] meta.count&#45;boundary (EachMode fixup)&#45;&gt;[root] local_file.literature (expand) -->
<g id="edge2" class="edge">
<title>[root] meta.count&#45;boundary (EachMode fixup)&#45;&gt;[root] local_file.literature (expand)</title>
<path fill="none" stroke="black" d="M231.29,-144.68C262.29,-134.68 302.22,-121.8 335.18,-111.16"/>
<polygon fill="black" stroke="black" points="336.29,-114.48 344.73,-108.08 334.14,-107.82 336.29,-114.48"/>
</g>
<!-- [root] provider[&quot;registry.terraform.io/hashicorp/local&quot;] (close) -->
<g id="node4" class="node">
<title>[root] provider[&quot;registry.terraform.io/hashicorp/local&quot;] (close)</title>
<ellipse fill="none" stroke="black" cx="615.68" cy="-162" rx="236.66" ry="18"/>
<text text-anchor="middle" x="615.68" y="-158.3" font-family="Times,serif" font-size="14.00">[root] provider[&quot;registry.terraform.io/hashicorp/local&quot;] (close)</text>
</g>
<!-- [root] provider[&quot;registry.terraform.io/hashicorp/local&quot;] (close)&#45;&gt;[root] local_file.literature (expand) -->
<g id="edge3" class="edge">
<title>[root] provider[&quot;registry.terraform.io/hashicorp/local&quot;] (close)&#45;&gt;[root] local_file.literature (expand)</title>
<path fill="none" stroke="black" d="M564.02,-144.41C533.1,-134.48 493.57,-121.79 460.81,-111.27"/>
<polygon fill="black" stroke="black" points="461.46,-107.8 450.87,-108.08 459.32,-114.47 461.46,-107.8"/>
</g>
<!-- [root] root -->
<g id="node5" class="node">
<title>[root] root</title>
<ellipse fill="none" stroke="black" cx="397.68" cy="-234" rx="48.19" ry="18"/>
<text text-anchor="middle" x="397.68" y="-230.3" font-family="Times,serif" font-size="14.00">[root] root</text>
</g>
<!-- [root] root&#45;&gt;[root] meta.count&#45;boundary (EachMode fixup) -->
<g id="edge4" class="edge">
<title>[root] root&#45;&gt;[root] meta.count&#45;boundary (EachMode fixup)</title>
<path fill="none" stroke="black" d="M362.34,-221.6C329.56,-211.03 280.13,-195.08 241.1,-182.49"/>
<polygon fill="black" stroke="black" points="242.01,-179.1 231.42,-179.36 239.86,-185.77 242.01,-179.1"/>
</g>
<!-- [root] root&#45;&gt;[root] provider[&quot;registry.terraform.io/hashicorp/local&quot;] (close) -->
<g id="edge5" class="edge">
<title>[root] root&#45;&gt;[root] provider[&quot;registry.terraform.io/hashicorp/local&quot;] (close)</title>
<path fill="none" stroke="black" d="M433.19,-221.6C465.89,-211.1 515.11,-195.29 554.2,-182.74"/>
<polygon fill="black" stroke="black" points="555.45,-186.02 563.9,-179.63 553.31,-179.35 555.45,-186.02"/>
</g>
</g>
</svg>
